# xmcd CD database file
#
# Track frame offsets:
#	150
#	18868
#	36722
#	61395
#	89099
#	111858
#	135932
#	165219
#	185496
#	198450
#
# Disc length: 2960 seconds
#
# Revision: 0
# Processed by: cddbd v1.5.2PL0 Copyright (c) Steve Scherf et al.
# Submitted via: CDex 1.70beta2
#
DISCID=840b8e0a
DTITLE=IAN SIEGAL - The Picnic Sessions
DYEAR=2015
DGENRE=Blues
TTITLE0=Stone Cold Soul
TTITLE1=How Come You're Still Here
TTITLE2=Heavenly Houseboat Blues
TTITLE3=Beulah Land
TTITLE4=Keen and Peachy
TTITLE5=Wasted Freedom
TTITLE6=Gallo Del Cielo
TTITLE7=Hard Times(Come Again No More)
TTITLE8=Talkin' Overseas Pirate Blues
TTITLE9=Only Tryin' To Survive
EXTD=YEAR: 2015
EXTT0=
EXTT1=
EXTT2=
EXTT3=
EXTT4=
EXTT5=
EXTT6=
EXTT7=
EXTT8=
EXTT9=
PLAYORDER=
